<svg width="629" height="149" viewBox="0 0 629 149" fill="none" xmlns="http://www.w3.org/2000/svg">
<path d="M628.067 148.96H531.681V0H628.067V26.287H561.911V61.1174H614.923V86.9663H561.911V122.673H628.067V148.96Z" fill="black"/>
<path d="M454.454 122.673L480.303 0H512.067L477.455 148.96H421.595L386.984 0H418.748L444.597 122.673H454.454Z" fill="black"/>
<path d="M367.24 148.96H337.01V0H367.24V148.96Z" fill="black"/>
<path d="M318.46 122.235V148.96H233.684V0H263.914V122.235H318.46Z" fill="black"/>
<path d="M205.162 104.052H140.321V77.327H205.162V104.052Z" fill="black"/>
<path d="M30.2301 148.96H0L33.516 0H90.9094L124.425 148.96H94.1953L88.2807 122.016H36.1447L30.2301 148.96ZM67.4701 24.9727H56.9553L41.8402 95.7287H82.5851L67.4701 24.9727Z" fill="black"/>
</svg>
